PathFileType	4	(X/Y/Z)	E:\Marcel_BSc\Ayumi_22_01_2025\22-01-2025\conv_dl_3.trc
DataRate	CameraRate	NumFrames	NumMarkers	Units	OrigDataRate	OrigDataStartFrame	OrigNumFrames
200.0	200.0	4	47	mm	200.0	865	2304	
Frame#	Time	FHD			LBHD			RBHD			RBAR			LBAR			RSACR			LSACR			USACR			C7			CLAV			T10			RSHO			LSHO			LTHI1			LTHI3			LTHI2			LTIB1			LTIB2			LTIB3			LMMAL			LLMAL			LHEE			LMT1			LMT5			LMT3			RTHI1			RTHI2			RTHI3			RTIB1			RTIB3			RTIB2			RLMAL			RMMAL			RHEE			RMT5			RMT1			RMT3			LDUPA			LMUPA			LUUPA			LRAD			RUL			RRAD			RUFIN			RMUPA			RDUPA			RUUPA			
		X1	Y1	Z1	X2	Y2	Z2	X3	Y3	Z3	X4	Y4	Z4	X5	Y5	Z5	X6	Y6	Z6	X7	Y7	Z7	X8	Y8	Z8	X9	Y9	Z9	X10	Y10	Z10	X11	Y11	Z11	X12	Y12	Z12	X13	Y13	Z13	X14	Y14	Z14	X15	Y15	Z15	X16	Y16	Z16	X17	Y17	Z17	X18	Y18	Z18	X19	Y19	Z19	X20	Y20	Z20	X21	Y21	Z21	X22	Y22	Z22	X23	Y23	Z23	X24	Y24	Z24	X25	Y25	Z25	X26	Y26	Z26	X27	Y27	Z27	X28	Y28	Z28	X29	Y29	Z29	X30	Y30	Z30	X31	Y31	Z31	X32	Y32	Z32	X33	Y33	Z33	X34	Y34	Z34	X35	Y35	Z35	X36	Y36	Z36	X37	Y37	Z37	X38	Y38	Z38	X39	Y39	Z39	X40	Y40	Z40	X41	Y41	Z41	X42	Y42	Z42	X43	Y43	Z43	X44	Y44	Z44	X45	Y45	Z45	X46	Y46	Z46	X47	Y47	Z47	
865	4.315	-225.94958	909.73364	-653.79907	-208.61328	915.1629	-591.76605	-169.76408	917.08472	-718.62201	131.78644	238.989	-1727.6287	138.6212	250.42152	494.92126	462.90771	731.57886	-692.19263	463.0184	736.45251	-619.82318	451.33063	739.12677	-655.38367	43.509468	920.81201	-627.40619	39.885403	763.45776	-635.53564	302.36868	826.59241	-649.72632	-0.37401205	793.28369	-773.36609	18.20344	782.06982	-478.65442	276.97662	496.47171	-428.33954	231.59822	449.75165	-437.7327	210.59167	495.47733	-430.73486	175.00294	213.47737	-437.19498	234.87878	232.73015	-424.12473	224.26675	167.95108	-432.67041	256.54562	75.495827	-521.87671	273.4245	71.093323	-444.5976	319.93228	37.993164	-493.33313	122.39468	45.564789	-478.14441	150.09656	28.018154	-402.92435	124.3908	41.683983	-444.09894	275.63687	474.40463	-857.53308	209.33595	476.66742	-854.36829	229.5018	430.16989	-841.90698	173.30885	244.92487	-849.91113	214.16895	195.41771	-837.37164	222.53476	260.01959	-851.43976	279.646	75.157547	-807.27142	245.10593	76.019859	-734.62213	327.96182	33.340752	-758.47437	147.96693	38.2197	-840.20502	127.8097	42.045704	-789.28339	135.87917	38.914871	-818.90106	158.44052	645.13306	-391.83951	110.98083	634.48755	-403.24799	98.488655	694.88629	-409.61938	160.99046	317.60873	-344.97968	87.202782	312.03693	-926.82764	89.369614	306.70581	-864.34552	91.492783	231.98962	-862.5202	65.771141	712.2533	-860.63257	80.036499	654.25781	-879.05212	111.10004	727.28906	-873.54346
866	4.32	-225.13042	911.05676	-653.97345	-208.04129	916.45642	-591.9549	-168.927	918.14252	-718.78998	131.41637	239.2758	-1727.9078	138.57285	250.46086	494.89835	462.86694	730.38647	-692.17792	462.96967	735.16846	-619.81171	451.34427	737.76575	-655.38159	43.976158	920.42694	-627.30841	39.919178	763.00647	-635.50677	302.47064	825.90784	-649.63147	-0.23071693	793.19879	-773.40729	18.371317	781.57025	-478.66226	276.42191	496.03043	-428.22809	230.84016	449.16345	-437.65018	210.16283	495.12476	-430.5058	174.63295	213.28572	-437.18616	234.3998	232.70433	-424.01904	223.97566	167.81584	-432.67316	256.32312	75.540802	-521.96234	273.3085	71.080284	-444.59799	319.76779	37.858864	-493.37888	122.35911	45.455498	-478.33899	150.10017	27.960991	-402.94257	124.38036	41.684734	-444.09668	274.77936	474.1886	-857.8584	208.58624	476.36691	-854.66772	228.90311	429.69101	-842.21265	172.87794	244.73463	-850.10803	213.85461	195.40836	-837.55475	221.80109	259.159	-850.9751	279.62378	75.141106	-807.39502	245.06718	76.044281	-734.71729	328.05316	33.425217	-758.52893	147.93922	38.195728	-840.21832	128.09328	42.136684	-789.2951	135.87128	38.938469	-818.9314	158.29465	645.05841	-391.64246	110.87688	634.4563	-403.26633	98.405373	694.79486	-409.74396	160.89441	317.54523	-344.94992	87.080048	312.0647	-926.81018	89.714012	306.98895	-864.06	91.231102	231.96342	-862.54041	66.214859	712.20599	-860.6579	80.509972	654.26648	-879.05786	111.57522	727.17719	-873.51471
867	4.325	-224.73203	912.72528	-654.2251	-207.42293	917.72498	-592.12219	-168.14398	919.19519	-718.97467	131.28035	239.16907	-1727.8455	138.48863	250.47502	494.92661	462.88339	729.07849	-692.09888	463.021	733.79718	-619.84229	451.36465	736.53754	-655.36298	44.459393	919.93518	-627.28058	39.930458	762.59131	-635.44946	302.59717	825.00281	-649.60883	-0.086239308	793.06726	-773.4989	18.477827	781.09766	-478.68918	275.86139	495.14304	-428.33481	230.22972	448.65503	-437.49402	209.74847	494.78955	-430.23764	174.32448	213.13188	-437.14923	234.00166	232.63774	-423.93369	223.70277	167.6705	-432.60959	256.19604	75.576965	-521.99445	273.20395	71.084915	-444.57977	319.74594	37.900513	-493.39789	122.33411	45.476112	-478.32736	150.05583	27.979061	-402.90656	124.36903	41.696903	-444.08035	274.34384	473.51965	-858.1286	208.2681	476.17194	-854.99994	228.31921	429.12698	-842.59772	172.43173	244.48808	-850.297	213.52271	195.23854	-837.76404	221.31566	259.05307	-851.23486	279.57217	75.143799	-807.51898	245.02277	76.053169	-734.8031	328.13528	33.504391	-758.56464	147.91098	38.217861	-840.26025	128.10287	42.12571	-789.31561	135.84398	38.989552	-818.97766	158.23083	645.01245	-391.41949	110.8839	634.37073	-403.30521	98.407982	694.70331	-409.84341	160.80655	317.4805	-344.93781	86.927254	312.09064	-926.79987	89.501076	306.9877	-864.04364	90.961082	231.86201	-862.59106	66.654152	712.177	-860.72876	80.99221	654.27881	-879.08051	112.03948	727.15723	-873.43158
868	4.33	-224.05766	914.08435	-654.45374	-206.85339	918.91461	-592.28387	-167.38963	920.25787	-719.0835	130.96823	239.37781	-1727.7527	138.41444	250.4814	494.89923	462.88077	727.88239	-692.09113	462.93195	732.64288	-619.73761	451.39154	735.32495	-655.39441	44.952007	919.42065	-627.31244	39.331268	762.18408	-635.41089	302.80045	824.01697	-649.63068	0.029521449	792.96179	-773.60303	17.597778	780.8324	-478.74078	275.38528	494.5885	-428.16565	229.37665	448.12408	-437.43808	209.32675	494.48843	-429.88141	174.01283	213.01358	-437.13821	233.61276	232.60571	-423.88727	223.39955	167.49745	-432.55142	256.27988	75.283066	-522.13171	273.10355	71.109306	-444.57309	319.74893	37.908318	-493.41528	122.33334	45.566326	-478.09848	150.07018	28.036392	-402.85208	124.3796	41.683655	-444.05072	273.98032	472.85248	-858.41144	208.01952	475.35132	-855.48132	227.77063	428.63272	-842.98785	172.01439	244.28391	-850.51556	213.1869	195.09673	-837.99945	220.92	258.91522	-851.56097	279.54675	75.12384	-807.62976	245.01781	76.061462	-734.89954	328.18674	33.531876	-758.60516	147.87975	38.246178	-840.33862	128.11028	42.119957	-789.33435	135.82025	39.015923	-819.03125	158.30527	645.02606	-391.19684	110.98042	634.2699	-403.36258	98.514259	694.60938	-409.96451	160.72598	317.40784	-344.91119	86.542961	311.89874	-926.78284	88.772552	306.82776	-863.88495	90.669998	231.81398	-862.63403	67.047684	712.15558	-860.79816	81.477089	654.23859	-879.14404	112.45966	727.17743	-873.3891
